<svg xmlns="http://www.w3.org/2000/svg" viewBox="0 0 64 64" width="64" height="64" fill="none">
  <!-- Траєкторія: мягка крива -->
  <path
    d="M10 48 Q 22 20, 40 30 Q 54 38, 54 18"
    stroke="#D8E4F0"
    stroke-width="1.2"
    stroke-linecap="round"
    stroke-dasharray="3 5"
    fill="none"
    opacity="0.7"
  />

  <!-- Світлячок 1 (нижній, найбільший) -->
  <g>
    <circle cx="14" cy="44" r="4" fill="#F6D6A8" opacity="0.9" />
    <circle cx="14" cy="44" r="6" fill="#F6D6A8" opacity="0.25" />
    <!-- Крильця -->
    <path
      d="M11 41 q-2 -3 0 -5"
      stroke="#E8C48F"
      stroke-width="1"
      stroke-linecap="round"
      fill="none"
    />
    <path
      d="M17 41 q2 -3 0 -5"
      stroke="#E8C48F"
      stroke-width="1"
      stroke-linecap="round"
      fill="none"
    />
  </g>

  <!-- Світлячок 2 (середній) -->
  <g>
    <circle cx="32" cy="28" r="3.2" fill="#A8D8B9" opacity="0.9" />
    <circle cx="32" cy="28" r="5" fill="#A8D8B9" opacity="0.25" />
    <path
      d="M29.5 25.5 q-2 -2.5 0 -4"
      stroke="#8FBF9F"
      stroke-width="0.9"
      stroke-linecap="round"
      fill="none"
    />
    <path
      d="M34.5 25.5 q2 -2.5 0 -4"
      stroke="#8FBF9F"
      stroke-width="0.9"
      stroke-linecap="round"
      fill="none"
    />
  </g>

  <!-- Світлячок 3 (верхній, найменший) -->
  <g>
    <circle cx="50" cy="20" r="2.4" fill="#F6D6A8" opacity="0.9" />
    <circle cx="50" cy="20" r="4" fill="#F6D6A8" opacity="0.25" />
    <path
      d="M48 18 q-1.5 -2 0 -3"
      stroke="#E8C48F"
      stroke-width="0.8"
      stroke-linecap="round"
      fill="none"
    />
    <path
      d="M52 18 q1.5 -2 0 -3"
      stroke="#E8C48F"
      stroke-width="0.8"
      stroke-linecap="round"
      fill="none"
    />
  </g>
</svg>